<svg version="1.1" id="Layer_1" xmlns="http://www.w3.org/2000/svg" xmlns:xlink="http://www.w3.org/1999/xlink" x="0px" y="0px"
	 width="100%" viewBox="0 0 800 512" enable-background="new 0 0 800 512" xml:space="preserve">
<path fill="#000000" opacity="1.000000" stroke="none" 
	d="
M211.295425,255.704559 
	C198.284088,242.768875 185.180862,230.366074 174.111130,216.134903 
	C152.859024,188.813370 153.361618,159.809921 168.150955,129.877655 
	C173.967514,118.105484 181.342850,107.520859 191.181778,98.748833 
	C192.117676,97.914413 192.845520,96.579727 194.425858,96.861389 
	C195.524002,97.551025 195.331512,98.652267 195.274384,99.581810 
	C194.054199,119.434349 201.656052,136.728119 211.142776,153.367630 
	C222.474854,173.243881 236.627441,191.200546 250.158737,209.569595 
	C264.916626,229.603775 278.974243,250.032349 286.369263,274.177856 
	C295.235718,303.127838 292.674042,330.383240 274.014923,355.132782 
	C270.435150,359.880981 266.181213,363.981720 260.562622,368.379791 
	C261.684845,361.498352 263.388519,355.995392 263.714172,350.241943 
	C264.889923,329.469604 256.427551,311.953918 245.169968,295.476654 
	C235.371567,281.135071 223.898163,268.155304 211.295425,255.704559 
z"/>
<path fill="#000000" opacity="1.000000" stroke="none" 
	d="
M478.621826,329.427246 
	C472.918793,339.511627 466.434326,348.462524 457.902496,355.900391 
	C453.199463,360.000336 448.145386,363.489624 442.423676,365.777832 
	C424.989380,372.750061 409.734558,363.758453 407.772339,345.061859 
	C405.719543,325.502289 413.762024,308.916077 425.191223,294.013947 
	C437.087769,278.502472 452.098846,266.432709 469.813629,257.873077 
	C475.249329,255.246582 481.016083,253.611816 486.763000,251.978470 
	C489.408813,251.226486 490.977051,249.949081 491.224274,247.383987 
	C492.142181,237.861084 494.364594,228.360474 491.326111,218.775696 
	C490.148163,215.059784 493.040924,213.499359 495.894043,213.013855 
	C499.679993,212.369644 501.923950,214.538971 502.225159,218.326767 
	C502.796021,225.505981 501.565582,232.588120 500.840942,239.695404 
	C500.622253,241.840286 500.400513,243.991150 500.334839,246.143997 
	C500.218353,249.959656 502.271698,250.069275 505.559784,248.849335 
	C502.446503,244.259827 504.389221,240.025940 506.024261,235.896545 
	C509.122620,228.071289 513.922424,221.249725 519.281494,214.838364 
	C521.578735,212.090042 524.688477,210.323288 528.264343,209.833832 
	C535.266052,208.875443 540.007874,213.726990 539.586731,221.211853 
	C546.349304,222.970581 546.349304,222.970581 544.865479,240.551102 
	C547.013245,241.810379 549.010925,240.609634 550.967590,239.980637 
	C559.629150,237.196320 566.264465,231.305573 572.719971,225.281204 
	C575.071594,223.086639 575.139893,219.513474 576.359863,216.614441 
	C576.975647,215.151215 577.048218,212.922485 579.286377,213.203568 
	C581.642883,213.499496 582.935730,215.145950 583.315857,217.625107 
	C583.962769,221.843704 582.092896,225.721588 581.617310,229.858276 
	C584.213501,230.371780 585.601196,228.732254 587.010315,227.486526 
	C592.873047,222.303726 598.648132,217.021545 604.439148,211.758041 
	C606.232361,210.128174 608.135437,208.626358 610.663757,209.880508 
	C613.162231,211.119858 613.260376,213.586014 613.070801,215.965973 
	C612.595642,221.929993 611.976624,227.882782 611.529602,233.848648 
	C611.359619,236.117371 611.502014,238.409500 611.502014,241.322983 
	C615.934021,239.272308 618.559692,235.979294 621.736267,233.477798 
	C628.015564,228.532928 634.101440,223.342850 640.292114,218.284561 
	C641.316956,217.447189 642.384399,216.571045 643.579651,216.054138 
	C645.447998,215.246170 647.207825,215.709045 648.471924,217.371841 
	C649.861389,219.199524 648.570374,220.389999 647.383728,221.642502 
	C639.459473,230.006210 630.906128,237.738678 621.743591,244.645416 
	C613.628174,250.762756 609.497986,257.844788 609.161682,268.354797 
	C608.452820,290.506073 604.141479,312.222565 598.031067,333.515778 
	C593.473633,349.397583 587.936768,364.908600 577.295959,377.988190 
	C573.111816,383.131256 568.008911,386.805420 561.587097,388.945160 
	C550.850403,392.522583 543.218323,386.875549 538.657959,378.923676 
	C533.170532,369.355225 532.437439,359.271301 535.881836,348.595612 
	C544.468811,321.980743 559.296082,299.026306 576.850403,277.665833 
	C584.136169,268.800385 591.437866,259.903778 600.005127,252.173492 
	C602.440002,249.976471 604.017700,247.297180 603.669739,243.814240 
	C603.025085,237.361588 605.350281,230.979645 604.275635,224.045685 
	C599.200073,226.756439 596.245239,231.367081 592.139099,234.609894 
	C590.573853,235.846039 589.169495,237.290695 587.574524,238.483490 
	C580.387695,243.858063 577.749390,243.565842 571.734741,236.425018 
	C566.154053,240.385849 560.208984,243.972382 554.401367,247.694656 
	C545.522766,253.385239 537.360840,248.328842 538.707153,238.192505 
	C538.869812,236.967377 539.175659,235.538162 537.746460,233.952866 
	C529.703674,237.984756 524.931152,246.264893 516.518372,250.730347 
	C521.415894,254.353745 527.471985,256.279846 529.302185,262.561707 
	C527.448914,263.615540 526.892883,262.267120 526.233276,261.470612 
	C520.932983,255.069656 513.486511,254.095428 505.951813,253.544159 
	C501.268951,253.201477 499.208862,256.041199 498.400482,260.357697 
	C496.596436,269.990509 494.649902,279.596985 492.716919,289.205231 
	C489.913544,303.140289 485.044098,316.361389 478.621826,329.427246 
M482.517334,294.098724 
	C485.384796,281.808044 488.149994,269.500397 489.514771,256.078735 
	C466.166382,265.066620 446.556946,277.402435 432.231934,297.116364 
	C427.384857,303.786804 422.601898,310.481018 419.433624,318.208557 
	C416.747467,324.760284 416.494690,331.730042 415.275116,338.541626 
	C414.567169,342.495605 414.474731,346.346497 415.346802,350.306061 
	C416.676483,356.343414 420.313904,359.750122 426.393036,359.612091 
	C438.367157,359.340302 447.485413,353.059631 455.340881,344.821625 
	C468.840546,330.664520 477.130890,313.596069 482.517334,294.098724 
M578.851929,360.372986 
	C587.155396,344.299316 592.106628,327.123596 595.612000,309.468628 
	C598.575012,294.545807 601.562317,279.628143 601.956116,263.652954 
	C601.012817,264.513947 600.527588,264.884277 600.128540,265.331512 
	C589.396667,277.360046 578.680542,289.411194 569.626038,302.794861 
	C563.482239,311.876099 557.549072,321.035431 552.900513,331.082367 
	C547.055603,343.714813 543.028015,356.685089 541.032471,370.460144 
	C540.356995,375.122864 541.663330,377.996399 545.281433,379.965698 
	C550.430420,382.768311 555.791443,382.765686 560.957642,379.752411 
	C568.666138,375.256226 573.964844,368.486450 578.851929,360.372986 
M519.346985,229.844849 
	C517.345764,233.357040 514.920349,236.668732 513.800720,241.343903 
	C520.037292,237.568832 524.505371,232.686798 529.386780,228.284470 
	C532.087646,225.848724 532.903931,223.356613 530.951538,219.935440 
	C525.752686,221.411133 522.586304,225.135452 519.346985,229.844849 
z"/>
<path fill="#000000" opacity="1.000000" stroke="none" 
	d="
M183.711182,260.768860 
	C186.288147,258.213531 188.245636,255.475632 191.851776,253.561600 
	C192.204849,257.230377 192.357361,260.453156 192.846313,263.624023 
	C195.563446,281.244415 205.831192,295.108307 215.759521,309.090607 
	C224.525848,321.436462 234.363892,333.056274 241.552841,346.466553 
	C249.396088,361.097351 254.557114,376.399628 251.276413,393.347931 
	C248.990692,405.156097 243.207596,414.874451 232.779083,423.215576 
	C234.166107,415.521820 235.525146,409.053436 234.189041,402.424438 
	C231.072571,386.962280 222.098602,374.799377 211.909470,363.480286 
	C202.556122,353.089661 192.472351,343.359253 183.031540,333.044037 
	C163.914627,312.156555 165.183228,290.876984 178.643356,268.012299 
	C180.073990,265.582092 181.862839,263.362762 183.711182,260.768860 
z"/>
<path fill="#000000" opacity="1.000000" stroke="none" 
	d="
M361.260986,254.232117 
	C362.065704,253.144943 362.619293,252.313293 363.194916,251.497208 
	C370.867828,240.618927 369.997253,233.255768 360.241425,223.900665 
	C352.220978,216.209641 342.570068,210.932648 333.249207,205.154099 
	C326.963104,201.256943 320.811707,197.129715 317.923218,189.955536 
	C314.969635,182.619659 317.741791,176.291779 322.277802,170.506592 
	C325.906403,165.878693 330.349762,161.988327 335.201874,158.861710 
	C356.333771,145.244705 379.079437,135.184418 403.574982,129.327911 
	C413.262390,127.011803 418.022797,128.997986 421.778168,136.184387 
	C425.001862,142.353439 423.433899,145.333069 416.043060,146.903809 
	C415.903656,146.463745 415.580597,145.985748 415.645813,145.568420 
	C416.629456,139.274185 414.821228,137.643188 408.274658,138.604233 
	C385.697144,141.918610 365.271698,150.689926 345.953613,162.552277 
	C340.696716,165.780273 335.488464,169.006744 330.640594,172.812195 
	C330.117126,173.223068 329.557465,173.589645 329.049591,174.018219 
	C319.142212,182.378891 319.435181,187.516998 329.960358,194.765717 
	C337.624359,200.043945 346.217316,203.912262 353.311554,210.023453 
	C361.519318,217.093872 369.463287,224.160370 371.935974,235.709518 
	C373.645416,243.693558 372.206848,250.537109 367.660675,256.803497 
	C359.716095,267.754181 348.985809,275.095642 336.321136,279.654266 
	C327.702972,282.756348 322.025146,281.933502 319.025024,277.288330 
	C315.496033,271.824280 316.714996,262.435822 321.612030,256.803741 
	C324.504791,253.476791 328.279877,251.302856 331.828308,248.847824 
	C335.956177,245.991882 340.499908,243.927444 345.277466,242.371613 
	C347.040710,241.797394 348.761139,241.206039 351.186707,242.839813 
	C348.036285,246.100677 345.206146,249.534286 341.867920,252.369781 
	C336.562775,256.876007 330.205841,260.121643 325.632416,265.507385 
	C324.344666,267.023895 321.837769,268.605591 323.188690,270.970886 
	C324.541168,273.338928 327.266144,272.721436 329.580627,272.424072 
	C341.187378,270.932892 350.341583,264.850708 358.505096,256.925629 
	C359.341614,256.113525 360.181702,255.305054 361.260986,254.232117 
z"/>
<path fill="#000000" opacity="1.000000" stroke="none" 
	d="
M384.832520,224.921021 
	C388.464569,220.178925 390.924530,214.954956 395.964203,211.829590 
	C400.257782,209.166946 404.397583,209.360794 408.689514,211.678040 
	C412.734344,213.861847 413.237793,217.473328 412.619598,221.459335 
	C417.844177,222.475403 419.805420,224.889908 419.170624,229.605530 
	C418.670532,233.320648 417.959259,237.007324 417.288513,241.025864 
	C421.657898,241.337402 424.928497,239.795837 428.180847,238.259277 
	C435.055573,235.011337 440.625458,229.983185 446.192017,224.955536 
	C447.611786,223.673233 448.199493,221.973862 448.805450,220.221756 
	C451.505005,212.416336 453.644348,211.842972 460.406158,217.046463 
	C462.032959,214.961258 463.563812,212.790039 465.310333,210.808899 
	C467.973267,207.788315 470.946960,205.713882 475.349274,207.531158 
	C480.074219,209.481613 482.626984,213.224197 482.400177,217.913330 
	C482.060150,224.943451 478.706665,231.802139 481.296051,239.035629 
	C481.439392,239.436020 480.919434,240.339066 480.465332,240.633408 
	C479.493164,241.263611 478.527191,240.746613 477.757690,240.064178 
	C474.484955,237.161636 473.618896,233.328156 473.808136,229.192184 
	C474.016296,224.643250 475.445587,220.124023 474.178314,214.785538 
	C467.955078,220.376343 464.875031,227.481308 460.564026,233.660797 
	C459.140228,235.701675 458.174103,238.073212 456.675995,240.048828 
	C451.179535,247.297272 446.906921,246.670914 443.131622,237.760117 
	C437.463226,241.476746 432.008667,245.423370 425.909576,248.299408 
	C417.366974,252.327682 411.911957,249.063370 411.732025,239.638794 
	C411.700500,237.988297 411.727509,236.336655 411.727509,234.392746 
	C408.509186,234.494415 406.591980,236.281326 404.680023,238.039642 
	C401.619415,240.854385 398.618958,243.735229 395.532562,246.521072 
	C392.917694,248.881287 390.099091,250.870026 386.449402,251.389633 
	C380.159088,252.285156 375.543671,247.177719 377.270905,240.991730 
	C378.847839,235.344116 381.370758,230.102097 384.832520,224.921021 
M386.863098,240.316620 
	C395.923004,237.586700 405.935699,225.561569 403.634613,219.734497 
	C394.572479,223.599518 390.827423,231.774017 386.863098,240.316620 
z"/>
<path fill="#000000" opacity="1.000000" stroke="none" 
	d="
M505.174042,180.589752 
	C508.698700,182.317123 508.717499,185.123337 507.194977,187.667618 
	C505.598541,190.335403 502.858643,189.641418 500.528137,188.482910 
	C498.842621,187.645035 497.580170,186.325699 497.795776,184.134506 
	C498.024445,181.810944 499.805359,181.869049 501.438202,181.560593 
	C502.576874,181.345474 503.680878,180.946747 505.174042,180.589752 
z"/>
</svg>