<svg xmlns="http://www.w3.org/2000/svg" version="1.1" xmlns:xlink="http://www.w3.org/1999/xlink" xmlns:svgjs="http://svgjs.dev/svgjs" width="1000" height="1000" viewBox="0 0 1000 1000"><rect width="1000" height="1000" fill="#000000"></rect><g transform="matrix(0.7,0,0,0.7,149.98026399314347,152.03199648812324)"><svg viewBox="0 0 248 247" data-background-color="#0a1627" preserveAspectRatio="xMidYMid meet" height="995" width="1000" xmlns="http://www.w3.org/2000/svg" xmlns:xlink="http://www.w3.org/1999/xlink"><g id="tight-bounds" transform="matrix(1,0,0,1,0.006992185286321728,-0.10000149919429191)"><svg viewBox="0 0 247.9860095389507 247.2" height="247.2" width="247.9860095389507"><g><svg viewBox="0 0 247.9860095389507 247.2" height="247.2" width="247.9860095389507"><g><svg viewBox="0 0 247.9860095389507 247.2" height="247.2" width="247.9860095389507"><g id="textblocktransform"><svg viewBox="0 0 247.9860095389507 247.2" height="247.2" width="247.9860095389507" id="textblock"><g><svg viewBox="0 0 247.9860095389507 247.2" height="247.2" width="247.9860095389507"><g><svg viewBox="0 0 247.9860095389507 247.2" height="247.2" width="247.9860095389507"><g transform="matrix(1,0,0,1,0,0)"><svg width="247.9860095389507" viewBox="0.699999988079071 -29.149999618530273 31.549999237060547 31.44999885559082" height="247.2" data-palette-color="#fe0039"><path d="M32.25-26.4L32.25-26.4Q32.25-25.3 31.35-23.85L31.35-23.85Q30.6-22.5 29.68-22 28.75-21.5 28.75-22.1L28.75-22.1Q28.75-22.15 29.3-22.7L29.3-22.7Q30.95-24.25 30.95-25.25L30.95-25.25Q30.95-27.4 26.7-27.4L26.7-27.4Q24.9-27.4 21.95-26.73 19-26.05 16.25-24.55L16.25-24.55Q13.05-22.8 13.05-21.5L13.05-21.5Q13.05-20.45 15-19.5L15-19.5Q16.05-19 19.18-17.82 22.3-16.65 24.23-15.78 26.15-14.9 27.88-13.3 29.6-11.7 29.6-9.75 29.6-7.8 27.3-5.5L27.3-5.5Q23.8-2.15 18.2 0.08 12.6 2.3 8.6 2.3L8.6 2.3Q0.7 2.3 0.7-2.15 0.7-6.6 5.55-9.7L5.55-9.7Q9.55-12.45 13.95-12.45L13.95-12.45Q15-12.45 14.9-12.1L14.9-12.1Q14.8-11.75 13.4-11.73 12-11.7 9.8-10.78 7.6-9.85 5.7-8.1L5.7-8.1Q3.2-5.85 3.2-3.6L3.2-3.6Q3.2-2.2 4.55-1.1 5.9 0 9.7 0 13.5 0 17.2-1.2L17.2-1.2Q25.2-3.85 27.2-7L27.2-7Q28-8.15 28-8.95L28-8.95Q28-11.25 25.2-12.55L25.2-12.55Q21.95-14.05 16.1-16L16.1-16Q13.85-16.75 12.28-17.98 10.7-19.2 10.7-20.93 10.7-22.65 12.58-24.33 14.45-26 17.1-27L17.1-27Q22.8-29.15 26.75-29.15L26.75-29.15Q32.25-29.15 32.25-26.4Z" opacity="1" transform="matrix(1,0,0,1,0,0)" fill="#ffffff" class="undefined-text-0" data-fill-palette-color="primary" id="text-0"></path></svg></g></svg></g></svg></g></svg></g></svg></g></svg></g><defs></defs></svg><rect width="247.9860095389507" height="247.2" fill="none" stroke="none" visibility="hidden"></rect></g></svg></g></svg>